<?xml version="1.0" encoding="UTF-8"?>
<!DOCTYPE svg PUBLIC "-//W3C//DTD SVG 1.1//EN" "http://www.w3.org/Graphics/SVG/1.1/DTD/svg11.dtd">
<!-- Creator: CorelDRAW 2021 (64-Bit) -->
<svg xmlns="http://www.w3.org/2000/svg" xml:space="preserve" width="2.6033mm" height="1.8892mm" version="1.1" style="shape-rendering:geometricPrecision; text-rendering:geometricPrecision; image-rendering:optimizeQuality; fill-rule:evenodd; clip-rule:evenodd"
viewBox="0 0 0.87 0.63"
 xmlns:xlink="http://www.w3.org/1999/xlink"
 xmlns:xodm="http://www.corel.com/coreldraw/odm/2003">
 <defs>
  <style type="text/css">
   <![CDATA[
    .fil0 {fill:white}
   ]]>
  </style>
 </defs>
 <g id="Layer_x0020_1">
  <metadata id="CorelCorpID_0Corel-Layer"/>
  <path class="fil0" d="M0.85 0.14c0.03,-0 0.02,0.03 0.02,0.05 -0,0.02 -0,0.03 -0.01,0.05 -0.01,0.03 -0.01,0.05 -0.02,0.08 -0.02,0.04 -0.03,0.06 -0.06,0.1 -0.01,0.01 -0.02,0.02 -0.03,0.03 -0.08,0.08 -0.18,0.12 -0.29,0.12 -0.12,0.01 -0.25,-0.04 -0.34,-0.12 -0.01,-0.01 -0.02,-0.02 -0.03,-0.03l-0.02 -0.03c-0.04,-0.06 -0.06,-0.13 -0.07,-0.2 -0,-0.02 -0,-0.05 0.03,-0.04 0.02,0.01 0.01,0.04 0.02,0.05 0,0.03 0.01,0.06 0.02,0.08 0.01,0.04 0.03,0.06 0.05,0.1 0.13,0.17 0.4,0.19 0.57,0.07 0.07,-0.05 0.12,-0.12 0.14,-0.21 0,-0.01 0.01,-0.03 0.01,-0.04 0,-0.02 -0,-0.05 0.02,-0.05zm-0.21 -0.03c0.02,-0.01 0.03,-0.01 0.05,-0.01 0.04,0 0.07,0.02 0.1,0.04l0.02 0.02c0.01,0.02 -0,0.03 -0.02,0.03 -0.01,-0 -0.03,-0.02 -0.04,-0.03 -0.01,-0 -0.01,-0.01 -0.01,-0.01 -0.01,-0 -0.01,-0.01 -0.02,-0.01 -0.04,-0.01 -0.05,0 -0.08,0.02l-0.01 0 -0.01 -0.01c-0.01,-0.01 -0.01,-0.02 -0.01,-0.03 -0.03,-0.05 -0.09,-0.08 -0.15,-0.08 -0.04,-0 -0.07,0.01 -0.1,0.03 -0.02,0.01 -0.02,0.02 -0.03,0.03 -0.01,0.02 -0.02,0.02 -0.03,0.04l-0.01 0.01 -0.01 -0.01c-0.02,-0.01 -0.03,-0.02 -0.05,-0.03 -0.04,-0.01 -0.08,-0 -0.11,0.02l-0.02 0.02c-0.01,0.02 -0.03,0.01 -0.04,-0 -0,-0.01 0.01,-0.03 0.02,-0.04 0,-0 0.01,-0.01 0.01,-0.01 0.03,-0.03 0.09,-0.05 0.13,-0.04 0.02,0 0.03,0.01 0.05,0.02 0.02,-0.03 0.05,-0.05 0.07,-0.07 0.03,-0.02 0.08,-0.03 0.12,-0.03 0.05,0 0.1,0.02 0.14,0.05l0.04 0.05c0,0 0,0 0,0zm-0.3 0.51c-0,-0.03 0.03,-0.03 0.05,-0.03l0.1 0c0.02,0 0.05,-0.01 0.05,0.02 0,0.03 -0.03,0.03 -0.05,0.03l-0.1 0c-0.02,0 -0.05,0 -0.05,-0.02z"/>
 </g>
</svg>
